<svg width="16" height="16" viewBox="0 0 16 16" fill="none" xmlns="http://www.w3.org/2000/svg">
<path fill-rule="evenodd" clip-rule="evenodd" d="M3.99957 3.23156C3.20704 3.23156 2.56457 3.87403 2.56457 4.66656V11.3332C2.56457 12.1258 3.20704 12.7682 3.99957 12.7682H8.66624C9.45877 12.7682 10.1012 12.1258 10.1012 11.3332V10.6666C10.1012 10.3545 10.3542 10.1016 10.6662 10.1016C10.9783 10.1016 11.2312 10.3545 11.2312 10.6666V11.3332C11.2312 12.7498 10.0828 13.8982 8.66624 13.8982H3.99957C2.58296 13.8982 1.43457 12.7498 1.43457 11.3332V4.66656C1.43457 3.24995 2.58296 2.10156 3.99957 2.10156H8.66624C10.0828 2.10156 11.2312 3.24995 11.2312 4.66656V5.33323C11.2312 5.64527 10.9783 5.89823 10.6662 5.89823C10.3542 5.89823 10.1012 5.64527 10.1012 5.33323V4.66656C10.1012 3.87403 9.45877 3.23156 8.66624 3.23156H3.99957ZM7.73242 4.93371C7.95307 5.15436 7.95307 5.5121 7.73242 5.73274L6.03027 7.4349L13.9996 7.4349C14.3116 7.4349 14.5646 7.68785 14.5646 7.9999C14.5646 8.31194 14.3116 8.56489 13.9996 8.5649L6.03027 8.5649L7.73242 10.267C7.95307 10.4877 7.95307 10.8454 7.73242 11.0661C7.51177 11.2867 7.15403 11.2867 6.93339 11.0661L4.26672 8.39941C4.16076 8.29345 4.10124 8.14974 4.10124 7.9999C4.10124 7.85005 4.16076 7.70634 4.26672 7.60038L6.93339 4.93371C7.15403 4.71307 7.51177 4.71307 7.73242 4.93371Z" fill="#2A2A2A"/>
<path fill-rule="evenodd" clip-rule="evenodd" d="M3.99957 3.23156C3.20704 3.23156 2.56457 3.87403 2.56457 4.66656V11.3332C2.56457 12.1258 3.20704 12.7682 3.99957 12.7682H8.66624C9.45877 12.7682 10.1012 12.1258 10.1012 11.3332V10.6666C10.1012 10.3545 10.3542 10.1016 10.6662 10.1016C10.9783 10.1016 11.2312 10.3545 11.2312 10.6666V11.3332C11.2312 12.7498 10.0828 13.8982 8.66624 13.8982H3.99957C2.58296 13.8982 1.43457 12.7498 1.43457 11.3332V4.66656C1.43457 3.24995 2.58296 2.10156 3.99957 2.10156H8.66624C10.0828 2.10156 11.2312 3.24995 11.2312 4.66656V5.33323C11.2312 5.64527 10.9783 5.89823 10.6662 5.89823C10.3542 5.89823 10.1012 5.64527 10.1012 5.33323V4.66656C10.1012 3.87403 9.45877 3.23156 8.66624 3.23156H3.99957ZM7.73242 4.93371C7.95307 5.15436 7.95307 5.5121 7.73242 5.73274L6.03027 7.4349L13.9996 7.4349C14.3116 7.4349 14.5646 7.68785 14.5646 7.9999C14.5646 8.31194 14.3116 8.56489 13.9996 8.5649L6.03027 8.5649L7.73242 10.267C7.95307 10.4877 7.95307 10.8454 7.73242 11.0661C7.51177 11.2867 7.15403 11.2867 6.93339 11.0661L4.26672 8.39941C4.16076 8.29345 4.10124 8.14974 4.10124 7.9999C4.10124 7.85005 4.16076 7.70634 4.26672 7.60038L6.93339 4.93371C7.15403 4.71307 7.51177 4.71307 7.73242 4.93371Z" fill="black" fill-opacity="0.2"/>
</svg>
