<svg width="16" height="16" viewBox="0 0 16 16" fill="none" xmlns="http://www.w3.org/2000/svg">
<path fill-rule="evenodd" clip-rule="evenodd" d="M6.3336 2.74497C6.75761 0.998419 9.24153 0.998422 9.66554 2.74497C9.7589 3.12955 10.1995 3.31205 10.5375 3.10613C12.0723 2.17095 13.8287 3.92735 12.8935 5.46217C12.6876 5.80012 12.8701 6.24073 13.2547 6.33409C15.0012 6.7581 15.0012 9.24202 13.2547 9.66603C12.8701 9.75939 12.6876 10.2 12.8935 10.5379C13.8287 12.0728 12.0723 13.8292 10.5375 12.894C10.1995 12.6881 9.7589 12.8706 9.66554 13.2551C9.24153 15.0017 6.75761 15.0017 6.3336 13.2551C6.24024 12.8706 5.79963 12.6881 5.46168 12.894C3.92686 13.8292 2.17047 12.0728 3.10565 10.5379C3.31157 10.2 3.12906 9.75939 2.74448 9.66603C0.997934 9.24202 0.997931 6.7581 2.74448 6.33409C3.12906 6.24073 3.31157 5.80012 3.10565 5.46217C2.17047 3.92735 3.92686 2.17095 5.46168 3.10613C5.79963 3.31205 6.24024 3.12955 6.3336 2.74497ZM8.56744 3.01156C8.42291 2.41622 7.57623 2.41623 7.43171 3.01156C7.1578 4.13981 5.86518 4.67523 4.87371 4.07112C4.35055 3.75235 3.75186 4.35104 4.07063 4.8742C4.67474 5.86567 4.13932 7.15829 3.01107 7.4322C2.41574 7.57672 2.41574 8.4234 3.01107 8.56792C4.13932 8.84183 4.67474 10.1344 4.07063 11.1259C3.75186 11.6491 4.35055 12.2478 4.87371 11.929C5.86518 11.3249 7.1578 11.8603 7.43171 12.9886C7.57623 13.5839 8.42291 13.5839 8.56744 12.9886C8.84134 11.8603 10.134 11.3249 11.1254 11.929C11.6486 12.2478 12.2473 11.6491 11.9285 11.1259C11.3244 10.1344 11.8598 8.84183 12.9881 8.56792C13.5834 8.4234 13.5834 7.57672 12.9881 7.4322C11.8598 7.15829 11.3244 5.86567 11.9285 4.8742C12.2473 4.35104 11.6486 3.75235 11.1254 4.07112C10.134 4.67523 8.84134 4.13981 8.56744 3.01156ZM7.99957 6.56506C7.20704 6.56506 6.56457 7.20753 6.56457 8.00006C6.56457 8.79259 7.20704 9.43506 7.99957 9.43506C8.7921 9.43506 9.43457 8.79259 9.43457 8.00006C9.43457 7.20753 8.7921 6.56506 7.99957 6.56506ZM5.43457 8.00006C5.43457 6.58345 6.58296 5.43506 7.99957 5.43506C9.41618 5.43506 10.5646 6.58345 10.5646 8.00006C10.5646 9.41667 9.41618 10.5651 7.99957 10.5651C6.58296 10.5651 5.43457 9.41667 5.43457 8.00006Z" fill="#2A2A2A"/>
<path fill-rule="evenodd" clip-rule="evenodd" d="M6.3336 2.74497C6.75761 0.998419 9.24153 0.998422 9.66554 2.74497C9.7589 3.12955 10.1995 3.31205 10.5375 3.10613C12.0723 2.17095 13.8287 3.92735 12.8935 5.46217C12.6876 5.80012 12.8701 6.24073 13.2547 6.33409C15.0012 6.7581 15.0012 9.24202 13.2547 9.66603C12.8701 9.75939 12.6876 10.2 12.8935 10.5379C13.8287 12.0728 12.0723 13.8292 10.5375 12.894C10.1995 12.6881 9.7589 12.8706 9.66554 13.2551C9.24153 15.0017 6.75761 15.0017 6.3336 13.2551C6.24024 12.8706 5.79963 12.6881 5.46168 12.894C3.92686 13.8292 2.17047 12.0728 3.10565 10.5379C3.31157 10.2 3.12906 9.75939 2.74448 9.66603C0.997934 9.24202 0.997931 6.7581 2.74448 6.33409C3.12906 6.24073 3.31157 5.80012 3.10565 5.46217C2.17047 3.92735 3.92686 2.17095 5.46168 3.10613C5.79963 3.31205 6.24024 3.12955 6.3336 2.74497ZM8.56744 3.01156C8.42291 2.41622 7.57623 2.41623 7.43171 3.01156C7.1578 4.13981 5.86518 4.67523 4.87371 4.07112C4.35055 3.75235 3.75186 4.35104 4.07063 4.8742C4.67474 5.86567 4.13932 7.15829 3.01107 7.4322C2.41574 7.57672 2.41574 8.4234 3.01107 8.56792C4.13932 8.84183 4.67474 10.1344 4.07063 11.1259C3.75186 11.6491 4.35055 12.2478 4.87371 11.929C5.86518 11.3249 7.1578 11.8603 7.43171 12.9886C7.57623 13.5839 8.42291 13.5839 8.56744 12.9886C8.84134 11.8603 10.134 11.3249 11.1254 11.929C11.6486 12.2478 12.2473 11.6491 11.9285 11.1259C11.3244 10.1344 11.8598 8.84183 12.9881 8.56792C13.5834 8.4234 13.5834 7.57672 12.9881 7.4322C11.8598 7.15829 11.3244 5.86567 11.9285 4.8742C12.2473 4.35104 11.6486 3.75235 11.1254 4.07112C10.134 4.67523 8.84134 4.13981 8.56744 3.01156ZM7.99957 6.56506C7.20704 6.56506 6.56457 7.20753 6.56457 8.00006C6.56457 8.79259 7.20704 9.43506 7.99957 9.43506C8.7921 9.43506 9.43457 8.79259 9.43457 8.00006C9.43457 7.20753 8.7921 6.56506 7.99957 6.56506ZM5.43457 8.00006C5.43457 6.58345 6.58296 5.43506 7.99957 5.43506C9.41618 5.43506 10.5646 6.58345 10.5646 8.00006C10.5646 9.41667 9.41618 10.5651 7.99957 10.5651C6.58296 10.5651 5.43457 9.41667 5.43457 8.00006Z" fill="black" fill-opacity="0.2"/>
</svg>
