<svg width="14" height="15" viewBox="0 0 14 15" fill="none" xmlns="http://www.w3.org/2000/svg">
<path fill-rule="evenodd" clip-rule="evenodd" d="M13.3806 1.11921C12.9997 0.738258 12.4282 0.738258 12.0473 1.11921L6.99967 6.16683L1.95206 1.11921C1.5711 0.738258 0.999675 0.738258 0.618722 1.11921C0.23777 1.50016 0.23777 2.07159 0.618722 2.45254L5.66634 7.50016L0.618722 12.5478C0.23777 12.9287 0.23777 13.5002 0.618722 13.8811C0.809198 14.0716 0.999674 14.1668 1.28539 14.1668C1.5711 14.1668 1.76158 14.0716 1.95206 13.8811L6.99967 8.8335L12.0473 13.8811C12.2378 14.0716 12.5235 14.1668 12.714 14.1668C12.9044 14.1668 13.1902 14.0716 13.3806 13.8811C13.7616 13.5002 13.7616 12.9287 13.3806 12.5478L8.33301 7.50016L13.3806 2.45254C13.7616 2.07159 13.7616 1.50016 13.3806 1.11921Z" fill="#137D60"/>
</svg>
